<svg xmlns="http://www.w3.org/2000/svg" width="318.622" height="78.58" viewBox="0 0 318.622 78.58">
  <g id="Vodafone_2017_logo" transform="translate(-0.132 -0.132)">
    <g id="Group_9225" data-name="Group 9225" transform="translate(0.132 0.132)">
      <path id="Subtraction_1" data-name="Subtraction 1" d="M39.289,78.58a39.277,39.277,0,0,1-27.78-67.073A39.288,39.288,0,1,1,54.581,75.493,39.027,39.027,0,0,1,39.289,78.58Zm14-75.117c-8,.029-17.113,3.468-23.77,8.974C22.2,18.5,17.492,28.227,17.526,37.224,17.578,52.031,28.993,61.2,39.539,61.2H39.6A21.127,21.127,0,0,0,60.78,40.218c-.039-10.539-5.9-17.307-17.428-20.115a3.6,3.6,0,0,1-.049-.643A15.846,15.846,0,0,1,47.021,9.347a16.165,16.165,0,0,1,9.094-5.565A10.2,10.2,0,0,0,53.286,3.463Z" fill="#fff"/>
      <g id="Group_9224" data-name="Group 9224" transform="translate(91.932 15.121)">
        <path id="Path_71" data-name="Path 71" d="M20.547,94.988,8.535,66.324h7.846l7.493,19.035,7.262-19.035h7.493L26.971,94.988Zm0,0" transform="translate(-8.535 -54.55)" fill="#fff"/>
        <path id="Path_72" data-name="Path 72" d="M30.373,81.183a13.371,13.371,0,0,0-.419-3.4,8.142,8.142,0,0,0-1.249-2.772,6.317,6.317,0,0,0-2.021-1.848,5.454,5.454,0,0,0-2.793-.693,5.436,5.436,0,0,0-2.793.693,6.243,6.243,0,0,0-2.021,1.848,8.142,8.142,0,0,0-1.249,2.772,14.16,14.16,0,0,0,0,6.836A8.972,8.972,0,0,0,19.04,87.39a5.954,5.954,0,0,0,2.028,1.884,5.674,5.674,0,0,0,2.822.686,5.525,5.525,0,0,0,2.793-.686,6.353,6.353,0,0,0,2.021-1.884,8.539,8.539,0,0,0,1.249-2.772,13.3,13.3,0,0,0,.419-3.436m7.254.032a18.169,18.169,0,0,1-.859,5.508,15.135,15.135,0,0,1-2.563,4.843,12.607,12.607,0,0,1-4.28,3.45,13.2,13.2,0,0,1-6.034,1.306,13.159,13.159,0,0,1-6.034-1.306,12.7,12.7,0,0,1-4.288-3.45,15.263,15.263,0,0,1-2.555-4.843,18.168,18.168,0,0,1-.859-5.508,17.9,17.9,0,0,1,.859-5.471,14.968,14.968,0,0,1,2.555-4.786,12.535,12.535,0,0,1,4.288-3.386,13.439,13.439,0,0,1,6.034-1.285A13.293,13.293,0,0,1,29.9,67.572a12.86,12.86,0,0,1,4.28,3.386,14.506,14.506,0,0,1,2.591,4.786,17.9,17.9,0,0,1,.859,5.471" transform="translate(20.624 -55.228)" fill="#fff"/>
        <path id="Path_73" data-name="Path 73" d="M30.231,83.055a10.957,10.957,0,0,0-3.97-.837,6.9,6.9,0,0,0-3.248.722,6.412,6.412,0,0,0-2.252,1.935,8.835,8.835,0,0,0-1.328,2.75,11.1,11.1,0,0,0-.448,3.133,14.808,14.808,0,0,0,.39,3.429,8.837,8.837,0,0,0,1.184,2.866,6.3,6.3,0,0,0,2.007,1.971,5.438,5.438,0,0,0,2.873.743,6.01,6.01,0,0,0,2.779-.743,4.915,4.915,0,0,0,2.014-1.761Zm.592,22.355-.3-2.194a9.106,9.106,0,0,1-2.671,1.985,8.341,8.341,0,0,1-3.912.866,10.582,10.582,0,0,1-5.212-1.249,11.674,11.674,0,0,1-3.8-3.328,15.228,15.228,0,0,1-2.346-4.822,20.432,20.432,0,0,1-.794-5.71,18.513,18.513,0,0,1,.823-5.471A14.477,14.477,0,0,1,15.138,80.7a12.581,12.581,0,0,1,4.244-3.385,13.2,13.2,0,0,1,5.984-1.285,16.261,16.261,0,0,1,4.865.83V65.746H37.6V105.41Zm0,0" transform="translate(50.173 -64.973)" fill="#fff"/>
        <path id="Path_74" data-name="Path 74" d="M29.68,82.225c-.794.042-1.617.116-2.454.21s-1.631.231-2.389.39a5.505,5.505,0,0,0-3.328,1.631,4,4,0,0,0-.924,2.534,2.82,2.82,0,0,0,1.047,2.288,4.561,4.561,0,0,0,2.96.859,6.805,6.805,0,0,0,2.786-.592,8.275,8.275,0,0,0,2.3-1.487Zm.592,13.419L29.984,93.5a8.179,8.179,0,0,1-3.046,2.072,10.737,10.737,0,0,1-4.057.751,10.141,10.141,0,0,1-3.551-.628,9.244,9.244,0,0,1-3.017-1.783,8.744,8.744,0,0,1-2.923-6.691,8.124,8.124,0,0,1,.837-3.775,8.243,8.243,0,0,1,2.267-2.765,12.6,12.6,0,0,1,3.284-1.841,20.635,20.635,0,0,1,3.876-1.076,28.243,28.243,0,0,1,3.133-.44c1.133-.1,2.079-.188,2.837-.267v-.418A4.157,4.157,0,0,0,28.4,73.245a5.159,5.159,0,0,0-3.371-1.011,9.267,9.267,0,0,0-2.4.3,10.422,10.422,0,0,0-2.028.736,18.089,18.089,0,0,0-1.588.9,11.2,11.2,0,0,0-1.1.8L15.468,69.8a10.491,10.491,0,0,1,1.458-1.01,16.313,16.313,0,0,1,2.382-1.162,20.046,20.046,0,0,1,3.147-.953,17.416,17.416,0,0,1,3.775-.39,14.206,14.206,0,0,1,4.345.628,8.8,8.8,0,0,1,3.393,1.963,9.179,9.179,0,0,1,2.23,3.386,13.624,13.624,0,0,1,.8,4.959V95.643Zm0,0" transform="translate(78.853 -55.228)" fill="#fff"/>
        <path id="Path_75" data-name="Path 75" d="M33.747,73.017a11.64,11.64,0,0,0-1.393-.505,9.617,9.617,0,0,0-2.772-.325A3.768,3.768,0,0,0,27,73.111a3.831,3.831,0,0,0-1.039,3v1.364h6.186v5.948H26.016v22.716H18.639V83.426h-3.8V77.478h3.8V75.933a13.723,13.723,0,0,1,.715-4.728,8.18,8.18,0,0,1,1.992-3.147,7.79,7.79,0,0,1,3-1.79A12.062,12.062,0,0,1,28.1,65.7a16.173,16.173,0,0,1,4.425.505,13.287,13.287,0,0,1,2.05.686Zm0,0" transform="translate(104.887 -65.705)" fill="#fff"/>
        <path id="Path_76" data-name="Path 76" d="M36.042,81.183a13.7,13.7,0,0,0-.419-3.4,8.142,8.142,0,0,0-1.249-2.772,6.317,6.317,0,0,0-2.021-1.848,5.976,5.976,0,0,0-5.587,0,6.34,6.34,0,0,0-2.028,1.848,8.429,8.429,0,0,0-1.249,2.772,14.4,14.4,0,0,0,0,6.836,9.156,9.156,0,0,0,1.22,2.772,6,6,0,0,0,2.021,1.884,5.721,5.721,0,0,0,2.83.686,5.525,5.525,0,0,0,2.793-.686,6.353,6.353,0,0,0,2.021-1.884,8.539,8.539,0,0,0,1.249-2.772,13.622,13.622,0,0,0,.419-3.436m7.254.032a17.956,17.956,0,0,1-.866,5.508,14.978,14.978,0,0,1-2.555,4.843,12.607,12.607,0,0,1-4.28,3.45,13.2,13.2,0,0,1-6.035,1.306,13.159,13.159,0,0,1-6.034-1.306,12.7,12.7,0,0,1-4.288-3.45,15.263,15.263,0,0,1-2.555-4.843,17.947,17.947,0,0,1-.859-5.508,17.687,17.687,0,0,1,.859-5.471,14.968,14.968,0,0,1,2.555-4.786,12.535,12.535,0,0,1,4.288-3.386,13.439,13.439,0,0,1,6.034-1.285,13.293,13.293,0,0,1,6.006,1.285,12.86,12.86,0,0,1,4.28,3.386,14.358,14.358,0,0,1,2.584,4.786,17.7,17.7,0,0,1,.866,5.471" transform="translate(122.695 -55.228)" fill="#fff"/>
        <path id="Path_77" data-name="Path 77" d="M35.768,95.658V79.309a8.2,8.2,0,0,0-1.364-5.06,4.547,4.547,0,0,0-3.811-1.783,5.92,5.92,0,0,0-3.176.895,13.4,13.4,0,0,0-2.534,1.964V95.658h-7.37V66.994h6.72l.354,2.259a13.251,13.251,0,0,1,8.265-2.967,12.265,12.265,0,0,1,4.165.678,8.165,8.165,0,0,1,3.27,2.173A10.011,10.011,0,0,1,42.4,73a19.464,19.464,0,0,1,.743,5.71V95.658Zm0,0" transform="translate(153.112 -55.22)" fill="#fff"/>
        <path id="Path_78" data-name="Path 78" d="M37.589,77.887a7.547,7.547,0,0,0-.628-2.584,5.472,5.472,0,0,0-1.256-1.783,4.872,4.872,0,0,0-3.378-1.343,5.647,5.647,0,0,0-3.645,1.429,6.108,6.108,0,0,0-2.035,4.281ZM26.473,83.178c.159,2.418.909,4.165,2.266,5.233a8.215,8.215,0,0,0,5.248,1.61,14.412,14.412,0,0,0,2.808-.267,12.949,12.949,0,0,0,2.331-.686,14.041,14.041,0,0,0,1.732-.83,5.77,5.77,0,0,0,1.076-.779L43.9,93.471q-.422.292-1.343.8a13.856,13.856,0,0,1-2.288.953A25.118,25.118,0,0,1,37.055,96a23.367,23.367,0,0,1-4.042.325,15.962,15.962,0,0,1-5.327-.888,11.9,11.9,0,0,1-4.425-2.772A13.523,13.523,0,0,1,20.229,88,17.652,17.652,0,0,1,19.1,81.337a18.365,18.365,0,0,1,1.039-6.424,13.638,13.638,0,0,1,2.851-4.7A12.624,12.624,0,0,1,27.209,67.3a13.22,13.22,0,0,1,5.147-1.011,14.069,14.069,0,0,1,5.06.9,10.367,10.367,0,0,1,4.013,2.765A13.334,13.334,0,0,1,44.1,74.8a22.558,22.558,0,0,1,.982,7.074v1.307Zm0,0" transform="translate(181.608 -55.227)" fill="#fff"/>
      </g>
    </g>
  </g>
</svg>
