<?xml version="1.0" standalone="no"?>
<!DOCTYPE svg PUBLIC "-//W3C//DTD SVG 1.1//EN" "http://www.w3.org/Graphics/SVG/1.1/DTD/svg11.dtd" >
<svg xmlns="http://www.w3.org/2000/svg">
<metadata>Generated by IcoMoon</metadata>
<defs>
<font id="icomoon" horiz-adv-x="1024">
<font-face units-per-em="1024" ascent="960" descent="-64" />
<missing-glyph horiz-adv-x="1024" />
<glyph unicode="&#x20;" horiz-adv-x="512" d="" />
<glyph unicode="&#xe900;" glyph-name="arrow-bottom" d="M568.388 155.273c-12.462-18.084-33.059-29.787-56.388-29.787s-43.926 11.703-56.239 29.558l-0.149 0.229-382.839 561.493c-7.417 10.762-11.847 24.081-11.847 38.434 0 37.692 30.546 68.249 68.234 68.267h765.681c37.689-0.018 68.235-30.575 68.235-68.267 0-14.354-4.43-27.673-11.997-38.664l0.15 0.23z" />
<glyph unicode="&#xe901;" glyph-name="arrow-circle" d="M511.979 960c-282.741-0.023-511.938-229.235-511.938-511.979 0-282.758 229.221-511.979 511.979-511.979s511.979 229.221 511.979 511.979v0c-0.352 282.632-229.386 511.652-511.989 511.979h-0.031zM511.979 881.215c0.012 0 0.027 0 0.041 0 239.269 0 433.236-193.966 433.236-433.236s-193.966-433.236-433.236-433.236c-239.269 0-433.236 193.966-433.236 433.236 0 0.015 0 0.029 0 0.044v-0.003c0 0.159 0 0.347 0 0.536 0 238.951 193.708 432.659 432.659 432.659 0.189 0 0.377 0 0.565 0h-0.029zM540.288 700.281l-56.616-55.38 157.529-157.529h-404.886v-78.785h404.927l-157.57-157.323 56.616-55.38 252.302 252.302z" />
<glyph unicode="&#xe902;" glyph-name="arrow-up" d="M326.925 7.518v436.763c0 29.765 24.129 53.895 53.895 53.895h244.197c29.765 0 53.895-24.129 53.895-53.895v-436.763c0-29.765-24.129-53.895-53.895-53.895h-244.197c-29.765 0-53.895 24.129-53.895 53.895zM459.83 875.547c9.937 13.149 25.544 21.558 43.116 21.558s33.179-8.409 43.018-21.422l0.098-0.136 395.156-526.875c6.729-8.895 10.779-20.143 10.779-32.337 0-29.765-24.129-53.895-53.895-53.895v0h-790.312c-29.765 0-53.895 24.129-53.895 53.895 0 12.194 4.050 23.442 10.877 32.472l-0.098-0.136z" />
<glyph unicode="&#xe903;" glyph-name="calender-circle" d="M512 960c282.77 0 512-229.23 512-512s-229.23-512-512-512c-282.77 0-512 229.23-512 512s229.23 512 512 512zM365.414 675.917v-20.352h-81.331v-447.258h447.283v447.258h-81.331v20.352h-40.653v-20.352h-203.315v20.352zM324.762 614.912h40.653v-20.352h40.653v20.352h203.315v-20.352h40.678v20.352h40.653v-40.653h-365.952zM324.762 533.606h365.926v-284.646h-365.926zM406.067 411.648v-40.678h203.315v40.653z" />
<glyph unicode="&#xe904;" glyph-name="chart" d="M708.928 928v-945.248h315.072v945.248zM787.648 849.248h157.536v-787.712h-157.536zM0 691.68v-708.928h315.072v708.928zM78.752 612.928h157.536v-551.392h-157.536zM354.432 455.392v-472.64h315.104v472.64zM433.216 376.64h157.536v-315.104h-157.504z" />
<glyph unicode="&#xe905;" glyph-name="chartL" d="M710.144 925.091v-946.828h315.578v946.828zM789.039 846.196h157.789v-788.945h-157.812zM0.093 688.384v-710.121h315.508v710.121zM78.988 609.489h157.812v-552.332h-157.905zM355.142 451.677v-473.414h315.439v473.414zM434.060 372.783h157.789v-315.625h-157.789z" />
<glyph unicode="&#xe906;" glyph-name="dot" d="M1024 448c0-282.77-229.23-512-512-512s-512 229.23-512 512c0 282.77 229.23 512 512 512s512-229.23 512-512z" />
<glyph unicode="&#xe907;" glyph-name="edit" d="M731.352 755.146l163.84-163.84c3.191-3.214 5.164-7.642 5.164-12.531s-1.972-9.317-5.165-12.532l-396.718-396.718-168.583-18.701c-1.109-0.123-2.395-0.194-3.697-0.194-19.526 0-35.355 15.829-35.355 35.355 0 1.302 0.070 2.588 0.208 3.854l-0.014-0.157 18.701 168.583 396.288 396.881c3.227 3.272 7.709 5.299 12.665 5.299s9.438-2.027 12.663-5.297l0.002-0.002zM1025.617 796.753l-88.657 88.657c-12.847 12.807-30.573 20.726-50.149 20.726s-37.302-7.919-50.151-20.728l-64.294-64.294c-3.191-3.214-5.164-7.642-5.164-12.531s1.972-9.317 5.165-12.532l163.839-163.839c3.214-3.191 7.642-5.164 12.531-5.164s9.317 1.972 12.532 5.165l-0.001-0.001 64.35 64.081c12.807 12.847 20.726 30.573 20.726 50.149s-7.919 37.302-20.728 50.151l0.002-0.002zM697.56 277.423v-184.751h-581.309v581.093h417.307c6.006 0.052 11.438 2.469 15.418 6.363l72.646 72.646c4.177 3.941 6.777 9.513 6.777 15.693 0 11.906-9.652 21.558-21.558 21.558-0.222 0-0.444-0.003-0.665-0.010l0.032 0.001h-519.006c-48.16 0-87.202-39.042-87.202-87.202v0-639.407c0-48.16 39.042-87.202 87.202-87.202v0h639.407c48.16 0 87.202 39.042 87.202 87.202v0 286.666c-0.023 12.037-9.787 21.787-21.827 21.787-6.017 0-11.466-2.435-15.414-6.373v0l-72.65-72.65c-3.891-3.976-6.308-9.408-6.36-15.404v-0.010z" />
<glyph unicode="&#xe908;" glyph-name="eye" d="M1010.198 468.881c-94.317 185.826-283.318 311.326-501.798 313.031l-0.23 0.001c-218.706-1.717-407.702-127.213-500.542-309.814l-1.485-3.218c-3.872-7.496-6.142-16.361-6.142-25.756s2.27-18.26 6.291-26.076l-0.15 0.32c94.317-185.826 283.318-311.326 501.798-313.031l0.23-0.001c218.706 1.717 407.702 127.213 500.542 309.814l1.485 3.218c3.872 7.496 6.142 16.361 6.142 25.756s-2.27 18.26-6.291 26.076l0.15-0.32zM508.171 189.062c-140.328 0-254.086 113.758-254.086 254.086s113.758 254.086 254.086 254.086c140.328 0 254.086-113.758 254.086-254.086v0c0-140.328-113.758-254.086-254.086-254.086v0zM508.171 612.552c-15.95-0.24-31.24-2.664-45.712-6.983l1.19 0.305c10.018-13.727 16.028-30.935 16.028-49.546 0-46.718-37.873-84.591-84.591-84.591-18.634 0-35.86 6.025-49.838 16.233l0.24-0.167c-3.786-13.35-5.963-28.681-5.963-44.521 0-93.437 75.746-169.183 169.183-169.183s169.183 75.746 169.183 169.183c0 93.437-75.746 169.183-169.183 169.183-0.189 0-0.378 0-0.567-0.001h0.029z" />
<glyph unicode="&#xe909;" glyph-name="eye-dash" d="M1010.198 495.994c-94.317 185.826-283.318 311.326-501.798 313.031l-0.23 0.001c-218.706-1.717-407.702-127.213-500.542-309.814l-1.485-3.218c-3.872-7.496-6.142-16.361-6.142-25.756s2.27-18.26 6.291-26.076l-0.15 0.32c94.317-185.826 283.318-311.326 501.798-313.031l0.23-0.001c218.706 1.717 407.702 127.213 500.542 309.814l1.485 3.218c3.872 7.496 6.142 16.361 6.142 25.756s-2.27 18.26-6.291 26.076l0.15-0.32zM508.171 216.175c-140.328 0-254.086 113.758-254.086 254.086s113.758 254.086 254.086 254.086c140.328 0 254.086-113.758 254.086-254.086v0c0-140.328-113.758-254.086-254.086-254.086v0zM508.171 639.666c-15.95-0.24-31.24-2.664-45.712-6.983l1.19 0.305c10.018-13.727 16.028-30.935 16.028-49.546 0-46.718-37.873-84.591-84.591-84.591-18.634 0-35.86 6.025-49.838 16.233l0.24-0.167c-3.786-13.35-5.963-28.681-5.963-44.521 0-93.437 75.746-169.183 169.183-169.183s169.183 75.746 169.183 169.183c0 93.437-75.746 169.183-169.183 169.183-0.189 0-0.378 0-0.567-0.001h0.029zM200.348 848.696h178.087l445.217-801.391h-178.087z" />
<glyph unicode="&#xe90a;" glyph-name="filter-list" d="M398.522 113.897h227.747v113.897h-227.747zM0 797.091v-113.85h1024.791v113.85zM170.775 398.569h683.194v113.85h-683.194z" />
<glyph unicode="&#xe90b;" glyph-name="flag" horiz-adv-x="1008" d="M683.116 762.43c-107.162 0-195.714 69.549-330.426 69.549-0.659 0.004-1.438 0.006-2.218 0.006-48.063 0-94.088-8.723-136.58-24.671l2.681 0.882c4.682 11.877 7.396 25.633 7.396 40.024 0 61.854-50.143 111.997-111.997 111.997s-111.997-50.143-111.997-111.997c0-37.873 18.799-71.355 47.574-91.625l0.355-0.237v-772.343c0-26.518 21.497-48.015 48.015-48.015v0h31.991c26.518 0 48.015 21.497 48.015 48.015v0 188.855c64.374 28.038 139.369 44.351 218.174 44.351 3.767 0 7.524-0.037 11.273-0.111l-0.561 0.009c107.162 0 195.714-69.549 330.426-69.549 92.337 0.709 177.416 31.199 246.257 82.321l-1.123-0.797c16.801 11.674 27.662 30.876 27.662 52.615 0 0.043 0 0.086 0 0.129v-0.007 486.278c0 0.003 0 0.007 0 0.010 0 35.337-28.646 63.982-63.982 63.982-9.795 0-19.076-2.201-27.376-6.136l0.388 0.166c-67.92-35.729-147.697-58.716-232.323-63.629l-1.567-0.073z" />
<glyph unicode="&#xe90c;" glyph-name="footprint" d="M333.483 933.205c-48.981-17.408-70.997-65.536-74.752-162.645-2.901-79.019 17.92-182.784 50.005-249.173 20.821-43.008 16.043-41.643 83.968-24.064 31.744 8.192 62.123 15.872 67.243 16.896 9.216 2.048 9.387 2.731 9.387 26.795 0 35.157 5.291 63.147 17.579 93.696 13.995 34.816 16.555 72.021 8.021 119.296-24.235 136.704-86.699 205.995-161.451 179.2zM645.12 687.957c-49.152-26.453-83.115-94.379-97.451-195.072-5.632-38.741-2.56-64.512 12.288-104.789 10.923-29.355 12.8-39.424 14.677-74.24l2.219-40.448 65.707-16.725c73.216-18.603 70.997-18.773 83.797 1.024 54.784 84.48 77.824 281.088 43.52 371.712-19.797 52.395-81.92 81.579-124.757 58.539zM411.307 444.928c-72.704-22.699-68.779-18.432-59.733-62.635 17.237-84.992 66.219-134.997 116.053-118.613 55.637 18.432 69.461 95.232 31.061 171.861-17.067 33.792-10.752 33.109-87.381 9.387zM546.475 191.147c-30.208-63.147-30.037-116.053 0.683-150.016 56.149-62.293 137.387 2.731 149.675 119.637l2.048 20.48-35.328 10.752c-19.627 5.803-49.323 15.189-66.219 20.651-16.896 5.632-31.915 10.069-33.28 10.069s-9.216-14.165-17.579-31.573z" />
<glyph unicode="&#xe90d;" glyph-name="Group-46" d="M209.18 960v-45.227h-180.736v-993.906h993.963v993.906h-180.736v45.227h-90.34v-45.227h-451.812v45.227zM118.841 824.434h90.34v-45.227h90.34v45.227h451.812v-45.227h90.396v45.227h90.34v-90.34h-813.227zM118.841 643.755h813.17v-632.548h-813.17zM299.52 372.736v-90.396h451.812v90.34z" />
<glyph unicode="&#xe90e;" glyph-name="home" d="M506.353 916.114l-26.536-25.366-479.817-479.817 53.072-53.072 47.28 47.28v-426.745h332.186v369.225h147.632v-369.225h332.186v426.774l47.28-47.28 53.072 53.072-479.817 479.817zM506.353 811.14l332.156-332.156v-426.862h-184.525v369.196h-295.263v-369.196h-184.554v426.862z" />
<glyph unicode="&#xe90f;" glyph-name="lock" d="M864.256 504.678h-48.794v146.33c0.016 1.183 0.026 2.579 0.026 3.977 0 170.652-138.34 308.992-308.992 308.992s-308.992-138.34-308.992-308.992c0-1.399 0.009-2.795 0.028-4.189l-0.002 0.212v-146.33h-48.742c-53.896 0-97.587-43.691-97.587-97.587 0-0.018 0-0.036 0-0.054v0.003-390.298c0-53.896 43.691-97.587 97.587-97.587h715.469c53.896 0 97.587 43.691 97.587 97.587v0 390.298c0 0.015 0 0.033 0 0.051 0 53.896-43.691 97.587-97.587 97.587v0zM652.851 504.678h-292.659v146.33c0 80.83 65.525 146.355 146.355 146.355s146.355-65.525 146.355-146.355v0z" />
<glyph unicode="&#xe910;" glyph-name="lock-open" d="M262.656 886.857c144.415-1.323 260.976-118.702 260.976-263.304 0-0.389-0.001-0.779-0.003-1.168v0.060-121.417h385.829c45.63-0.042 82.61-37.021 82.651-82.647v-330.756c-0.042-45.63-37.021-82.61-82.647-82.651h-606.285c-45.63 0.042-82.61 37.021-82.651 82.647v330.683c0.042 45.63 37.021 82.61 82.647 82.651h82.656v122.587c0.243 2.917 0.382 6.314 0.382 9.743 0 68.673-55.67 124.343-124.343 124.343s-124.343-55.67-124.343-124.343c0-2.913 0.1-5.803 0.297-8.667l-0.021 0.387v-137.801c0-0.022 0-0.047 0-0.073 0-22.783-18.469-41.253-41.253-41.253-0.026 0-0.051 0-0.077 0h-55.146c-0.022 0-0.047 0-0.073 0-22.783 0-41.253 18.469-41.253 41.253 0 0.026 0 0.051 0 0.077v-0.004 137.801c0.166 144.652 117.468 261.852 262.144 261.852 0.18 0 0.36 0 0.54-0.001h-0.028z" />
<glyph unicode="&#xe911;" glyph-name="logout" d="M378.042 703.767l63.953-62.557-177.943-178.083h457.356v-88.995h-457.356l177.943-177.711-63.953-62.557-284.998 284.998z" />
<glyph unicode="&#xe912;" glyph-name="manual" d="M523.264 893.269c-11.264-2.731-11.947-5.12-12.971-40.789l-0.853-31.403-5.12-1.195c-9.557-2.389-27.989-10.069-47.104-19.968-0.512-0.171-10.24 8.704-21.333 19.797-20.992 20.992-25.259 24.235-31.232 24.235-6.144 0-9.728-3.072-47.275-40.789-46.421-46.251-45.227-40.789-15.019-71.851 19.968-20.48 21.333-22.357 20.309-27.136-0.512-2.731-2.219-5.973-3.584-7.168-1.365-1.024-2.389-2.901-2.389-4.096 0-1.365-1.024-4.437-2.389-7.168-4.949-9.728-7.851-17.749-7.851-20.992 0-1.877-1.536-4.949-3.413-6.827-3.072-3.072-5.632-3.413-31.573-3.413-44.203 0-41.813 3.584-41.813-64 0-47.957 0.171-51.029 3.413-56.32 1.877-3.072 5.12-5.973 7.339-6.656 2.048-0.512 16.555-1.024 32.427-1.024h28.501l2.389-5.461c1.365-3.072 3.755-9.045 5.291-13.312 3.584-9.728 7.339-17.92 11.264-25.771 1.877-3.413 3.243-7.339 3.243-8.875 0-1.365-9.557-12.117-21.333-24.064-30.208-30.549-31.403-25.088 15.872-72.533 22.869-23.040 38.912-37.888 41.643-38.571 8.704-2.219 15.36 2.048 35.499 22.187 19.456 19.627 23.381 21.845 28.843 17.408 2.56-2.219 16.725-8.363 36.864-16.043l8.533-3.243 0.853-30.72c0.683-26.112 1.365-31.232 4.096-35.157l3.072-4.779h113.323l3.755 5.12c3.584 4.608 3.755 6.827 3.755 35.499v30.379l9.899 3.243c9.899 3.243 28.16 11.093 36.523 15.531 2.389 1.365 5.461 2.389 6.827 2.389 1.195 0 10.752-8.533 20.992-18.944 10.411-10.411 20.992-19.968 23.723-21.504 10.752-5.632 13.653-3.755 54.101 36.864 47.445 47.787 46.251 42.325 16.043 72.875-11.776 11.947-21.333 22.699-21.333 24.235 0 1.365 2.56 8.021 5.632 14.677 9.557 20.139 11.435 24.917 11.435 27.989 0 1.707 1.195 4.779 2.731 6.827 2.56 3.584 3.584 3.755 31.061 3.755 15.701 0 30.208 0.512 32.256 1.024 2.219 0.683 5.461 3.584 7.339 6.656 3.243 5.291 3.413 8.363 3.413 56.32 0 43.008-0.341 51.371-2.731 55.296-4.437 7.68-9.216 8.704-39.424 8.704-25.6 0-28.16 0.341-31.232 3.413-1.877 1.877-3.413 4.949-3.413 6.827 0 3.413-1.707 7.851-11.435 28.331-3.072 6.656-5.632 13.141-5.632 14.336s9.557 12.117 21.333 24.064c29.867 30.72 30.72 25.771-12.8 69.461-37.376 37.547-43.691 43.008-49.323 43.008-6.315 0-10.411-3.072-31.573-24.235-11.093-11.093-20.821-19.968-21.333-19.797-19.115 9.899-37.547 17.579-47.104 19.968l-5.12 1.195-0.853 31.403c-1.024 36.181-1.536 38.059-13.824 40.789-9.216 2.219-91.989 2.048-101.205 0zM607.232 830.976c0.341-26.624 0.683-29.525 3.755-32.256 3.584-3.243 19.285-9.216 24.235-9.387 4.608 0 32.768-12.8 45.909-20.821 5.12-3.072 10.24-4.779 14.507-4.779 6.144 0 8.021 1.365 27.477 20.821l20.821 20.651 21.333-20.992c11.776-11.605 21.504-22.187 21.504-23.552 0-1.536-8.704-11.605-19.456-22.357-10.581-10.923-19.797-21.675-20.48-23.723-0.853-2.56 0-6.315 2.731-11.435 17.237-33.109 26.965-56.32 26.965-64.512 0-4.949 4.949-12.117 9.899-14.507 2.901-1.365 13.312-2.048 30.037-2.048 14.165 0 26.795-0.683 27.989-1.365 1.536-1.195 2.048-8.533 1.707-31.232l-0.512-29.696-28.501-0.512-28.672-0.341-5.973-6.144c-3.243-3.243-5.973-7.68-5.973-9.728 0-8.363-6.144-24.064-20.309-52.053-7.68-15.36-10.24-22.016-9.387-24.747 0.683-2.048 9.899-12.629 20.48-23.552 10.752-10.752 19.456-20.821 19.456-22.187s-9.557-12.117-21.333-23.723l-21.504-21.163-19.968 19.968c-24.747 24.747-28.331 25.941-45.568 15.019-12.459-8.021-36.523-17.92-49.835-20.821-8.192-1.536-16.043-5.291-18.944-8.875-1.195-1.536-2.048-12.8-2.389-32.085l-0.512-29.696h-64.853l-0.512 29.696c-0.341 19.285-1.195 30.549-2.389 32.085-2.901 3.584-10.752 7.339-18.944 8.875-13.312 2.901-37.376 12.8-49.835 20.821-17.237 10.923-20.821 9.728-45.568-15.019l-19.968-19.968-21.504 21.163c-11.776 11.605-21.333 22.357-21.333 23.723s8.704 11.435 19.456 22.187c10.581 10.923 19.797 21.504 20.48 23.552 1.024 3.243-2.901 12.459-12.629 29.525-3.584 6.144-11.947 25.771-11.947 27.989 0 1.195-1.195 5.12-2.56 8.363-1.365 3.413-2.56 8.192-2.56 10.411 0 2.731-2.389 6.656-5.973 10.24l-5.973 6.144-28.672 0.341-28.501 0.512-0.512 29.696c-0.341 22.699 0.171 30.037 1.707 31.232 1.195 0.683 13.824 1.365 27.989 1.365 16.725 0 27.136 0.683 30.037 2.048 4.949 2.389 9.899 9.557 9.899 14.507 0 1.707 1.195 6.997 2.731 11.605 2.56 7.851 4.267 12.117 10.069 25.6 1.195 2.901 2.731 6.315 3.243 7.68 0.683 1.365 3.413 6.485 6.144 11.093 7.851 12.8 8.704 15.531 6.656 20.821-0.853 2.56-10.069 13.141-20.48 23.552-10.24 10.411-18.603 20.139-18.603 21.504s9.557 11.947 21.333 23.723l21.333 21.333 20.992-20.992c19.797-19.627 21.163-20.821 27.648-20.821 4.437 0 9.045 1.536 12.8 3.925 5.291 3.584 20.139 10.923 38.059 18.773 3.584 1.707 7.68 2.901 9.387 2.901 5.12 0.171 20.651 6.144 24.235 9.387 3.072 2.901 3.413 5.291 3.413 31.573 0 15.701 0.512 29.013 1.195 29.696 0.683 0.512 15.36 0.853 32.768 0.683l31.744-0.512 0.512-29.184zM537.088 729.6c-28.843-8.021-60.245-29.184-77.141-52.053-18.261-24.576-30.037-59.051-29.867-87.211 0.171-16.043 6.315-45.739 11.605-56.32 14.336-28.501 24.747-41.813 44.544-56.832 7.168-5.291 14.165-10.411 15.531-10.923 1.365-0.683 5.973-3.072 10.069-5.461s8.533-4.267 9.728-4.267c1.195 0 4.779-1.024 7.851-2.389 19.115-8.192 51.541-10.069 75.093-4.437 26.112 6.315 34.645 10.411 57.856 27.648 19.627 14.677 30.208 27.989 44.544 56.661 5.461 10.581 11.435 40.448 11.435 56.491 0.171 15.701-4.779 39.936-11.093 54.613-1.195 2.901-2.56 6.315-3.072 7.68-0.683 1.365-2.56 4.949-4.437 7.68-1.877 2.901-3.925 6.315-4.608 7.68-2.219 5.12-11.605 16.384-20.821 25.259-12.117 11.435-25.6 20.821-40.448 27.648-19.968 9.387-26.453 10.752-57.003 11.264-23.381 0.341-30.208-0.171-39.765-2.731zM603.477 698.368c26.453-7.851 49.493-24.405 64-46.080 3.584-5.461 6.656-11.093 6.656-12.288 0-1.365 0.683-2.731 1.536-3.243 0.683-0.512 3.243-6.144 5.291-12.459 5.632-16.384 5.973-50.859 0.512-66.219-6.827-19.285-11.093-26.965-21.333-39.253-26.112-31.403-69.291-46.421-108.885-37.717-18.773 4.267-29.184 9.045-43.861 19.968-19.968 14.848-30.72 30.037-40.277 57.003-5.461 15.36-5.12 49.835 0.512 66.219 2.048 6.315 4.608 11.947 5.291 12.459 0.853 0.512 1.536 1.877 1.536 3.243 0 3.755 12.629 21.675 20.821 29.184 16.555 15.531 31.061 23.893 52.395 29.696 13.653 3.925 42.155 3.584 55.808-0.512zM320.853 314.709c-13.483-3.755-23.211-7.339-29.013-10.411-10.069-5.461-23.381-15.019-28.843-20.821-6.997-7.339-8.875-7.509-14.336-2.048-2.389 2.389-6.827 4.608-9.899 5.291-3.243 0.512-34.133 0.853-68.949 0.512-62.976-0.512-63.147-0.512-68.779-4.437l-5.461-3.925 0.341-136.704 0.512-136.704 4.779-3.584c4.608-3.413 6.997-3.584 64.853-4.096 33.109-0.341 64.171 0 69.12 0.512 12.288 1.536 19.115 7.339 19.115 16.213 0 3.584 0.683 6.997 1.365 7.509 0.683 0.341 6.997-1.877 13.995-5.12 15.701-7.339 20.821-9.728 30.72-13.483 4.267-1.536 9.557-3.584 11.605-4.437 4.096-1.536 18.091-6.144 32.768-10.752 30.208-9.387 67.413-16.384 104.96-19.968 24.576-2.389 72.875-2.219 87.040 0.171 5.632 0.853 13.653 1.707 17.92 1.707 9.899 0 52.053 7.68 71.339 12.971 21.845 5.973 28.843 8.021 34.133 10.24 3.072 1.365 6.656 2.389 8.021 2.389s5.291 1.195 8.875 2.731c3.584 1.536 9.216 3.925 12.459 5.291 21.675 9.216 27.136 11.605 35.84 15.872 4.267 1.877 8.875 4.267 10.24 5.12s3.755 1.877 5.12 2.56c1.365 0.512 4.096 1.877 5.973 3.072s8.021 4.608 13.653 7.851c65.024 37.205 125.611 93.696 170.667 159.403 8.533 12.629 12.288 18.261 14.507 22.528 3.584 6.656 6.144 10.752 8.533 13.653 4.096 4.949 3.413 35.499-0.683 45.227-10.24 23.552-34.304 39.253-59.904 39.253-13.653-0.171-19.115-2.389-30.208-12.8-4.096-3.925-11.093-10.069-15.872-13.653-4.608-3.755-10.411-8.533-12.8-10.581-2.389-2.219-4.949-3.925-5.632-3.925-0.853 0-4.437-2.048-7.851-4.608-8.192-6.315-10.24-7.509-30.037-17.237-19.968-9.899-33.621-15.36-52.907-21.333-15.189-4.608-21.333-5.12-24.917-1.877-1.707 1.536-3.243 3.925-3.243 5.12 0 3.584-18.944 21.845-26.965 25.941-8.533 4.437-19.968 4.949-31.061 1.365-23.211-7.339-33.963-8.533-77.653-8.704-44.544 0-42.325-0.171-78.507 8.875-5.632 1.365-12.8 3.584-15.872 4.949s-6.827 2.389-8.192 2.389c-1.536 0-4.779 1.024-7.168 2.219-2.56 1.365-7.339 3.584-10.581 4.949-5.461 2.389-26.624 12.971-34.987 17.408-1.877 1.024-5.803 3.584-8.533 5.461-19.797 14.336-62.635 20.139-89.6 12.459zM370.347 283.989c9.387-1.877 18.432-5.632 28.16-11.776 8.704-5.461 12.288-7.509 25.941-14.165 7.339-3.584 14.677-7.339 16.213-8.192 4.949-2.56 29.355-10.923 46.592-15.872 45.227-12.971 107.861-15.189 151.893-5.291 30.379 6.656 29.013 6.656 33.792 3.413 8.192-5.291 12.117-13.995 12.117-26.453 0-10.24-0.512-12.117-5.291-18.091-3.413-4.267-9.557-8.704-16.896-12.288-6.485-3.243-13.141-6.485-14.677-7.339-9.557-4.949-52.907-18.603-59.051-18.603-1.877 0-8.363-1.195-14.336-2.731-15.189-4.096-80.555-4.096-98.645-0.171-24.747 5.291-28.501 5.803-32.597 4.267-7.68-2.901-10.069-6.485-10.069-15.189 0-6.997 0.683-8.533 4.779-11.605 13.312-9.387 77.653-16.213 116.907-12.288 33.792 3.413 57.515 8.875 93.013 21.504 3.925 1.365 8.533 3.243 10.24 4.096 1.536 0.853 8.363 4.096 14.848 7.168 12.288 5.803 22.699 12.971 29.525 20.309 4.437 4.949 11.605 19.115 12.971 25.941 0.853 3.925 2.56 4.949 10.923 7.339 5.291 1.536 13.312 3.925 17.579 5.291 4.437 1.365 9.216 2.389 10.752 2.389 1.365 0 5.12 1.024 8.192 2.389s9.045 3.755 13.312 5.291c11.776 4.608 39.253 18.091 46.933 22.869 3.755 2.389 7.68 4.779 8.533 5.291 6.827 3.413 28.16 18.944 40.619 29.696 19.797 17.067 19.797 17.067 29.696 13.653 15.531-5.291 22.699-14.165 22.699-28.16 0-7.509-1.195-10.752-8.533-22.699-27.477-44.373-68.267-91.307-103.595-119.637-8.363-6.485-15.36-12.288-15.872-12.8-3.243-3.584-41.472-29.355-50.347-34.133-1.877-1.024-5.632-3.243-8.533-5.12-2.731-1.877-6.315-3.755-7.68-4.437-1.365-0.512-3.755-1.536-5.12-2.389-9.728-5.803-39.424-19.115-52.907-23.893-2.389-0.853-8.533-3.072-13.653-5.12s-12.117-4.437-15.36-5.12c-3.243-0.683-8.192-2.219-11.093-3.072-2.731-1.024-9.728-2.901-15.36-4.267s-13.995-3.584-18.773-4.608c-4.608-1.195-13.141-2.731-18.773-3.413-5.632-0.853-14.507-2.389-19.627-3.584-15.019-3.584-115.541-3.072-136.533 0.683-30.208 5.461-52.565 10.581-69.973 15.872-15.189 4.779-28.843 9.216-32.768 10.752-18.603 7.339-24.405 9.899-36.352 15.531-7.509 3.413-14.848 6.827-16.213 7.509-1.365 0.512-4.779 2.389-7.68 4.096l-5.12 3.243-0.512 70.656c-0.512 81.749-0.341 83.797 14.336 111.104 1.365 2.389 7.68 9.728 14.165 16.213 16.555 16.555 33.109 24.235 61.611 28.501 4.949 0.683 12.629-0.171 25.6-2.56zM222.208 251.392c1.707-2.901 1.707-217.6 0-218.795-1.877-1.195-29.184-1.707-30.379-0.683-0.512 0.512-1.024 19.285-1.195 41.813-0.341 35.669-0.683 41.301-3.413 45.397-5.973 9.216-21.504 8.021-27.136-2.219-2.901-5.291-3.072-9.899-3.072-44.885 0.171-21.504-0.171-39.424-0.512-39.936-0.683-0.683-21.163-1.195-27.989-0.683-1.707 0.171-2.219 23.381-2.219 109.909 0 66.901 0.683 110.421 1.536 111.445 2.731 2.56 92.672 1.195 94.379-1.365z" />
<glyph unicode="&#xe913;" glyph-name="mark" d="M542.753 960l-13.668-12.307-529.085-534.588 30.087-31.448 415.6-415.688 31.537-29.969 29.998 29.969 504.5 499.116 12.307 13.668v481.247zM579.674 872.49h356.845v-356.816l-459.296-456.633-354.183 354.094zM805.254 784.98c-24.165 0-43.755-19.59-43.755-43.755s19.59-43.755 43.755-43.755c24.165 0 43.755 19.59 43.755 43.755v0c-0.034 24.158-19.6 43.734-43.75 43.785h-0.005z" />
<glyph unicode="&#xe914;" glyph-name="marks" d="M464.141 933.053l-12.099-10.779-425.445-425.58-26.597-27.81 26.597-27.81 348.106-348.079 27.81-26.597 27.81 26.597 425.445 425.472 10.779 12.099v402.486zM496.667 855.687h292.621v-292.514l-386.776-386.776-292.514 292.514zM905.216 817.017v-77.366h38.777v-315.473l-367.427-365.029-48.344 48.344-54.38-54.38 74.941-76.153 27.81-26.597 26.597 26.597 407.309 402.486 10.779 12.099v425.472zM673.145 778.348c-21.357 0-38.669-17.313-38.669-38.669s17.313-38.669 38.669-38.669c21.357 0 38.669 17.313 38.669 38.669v0c-0.046 21.3-17.27 38.563-38.552 38.669h-0.010z" />
<glyph unicode="&#xe915;" glyph-name="profiles" d="M393.92 958.72c0.107-0.853-2.133-1.6-6.72-2.24-8-0.96-21.227-3.52-26.667-5.227-2.027-0.64-5.44-1.6-7.467-2.027-3.52-0.747-5.76-1.387-15.467-4.907-5.76-2.133-15.147-6.187-22.933-9.92-12.16-5.76-35.413-20.587-44.8-28.48-22.293-18.88-44.053-44.48-54.933-64.853-1.493-2.88-3.84-7.253-5.12-9.6-2.347-4.267-8.213-17.92-10.88-25.067-1.28-3.52-2.24-6.933-6.187-21.333-4.373-16.107-5.44-25.707-5.44-51.733 0.107-26.24 0.107-26.347 5.44-50.133 1.707-7.573 8-27.627 9.707-31.147 0.533-1.067 1.707-3.733 2.773-5.867 10.667-24.427 26.453-47.147 46.933-67.627 13.547-13.547 31.573-27.733 45.973-36.373 4.16-2.453 29.973-15.040 34.133-16.533 9.6-3.733 13.12-4.907 18.667-6.507 13.12-3.733 18.133-4.907 28.267-6.613 17.813-2.987 17.387-2.88 14.933-3.84-1.173-0.427-4.373-0.853-7.040-0.853-7.467-0.107-33.6-4.587-48.107-8.213-13.867-3.413-19.733-5.013-23.253-6.293-8.427-2.987-11.307-3.947-14.4-4.8-8.107-2.24-41.6-16.533-47.467-20.267-0.853-0.533-3.947-2.24-6.933-3.733-2.88-1.493-6.293-3.307-7.467-4.053-1.067-0.747-3.947-2.453-6.4-3.947-2.347-1.387-5.227-3.2-6.4-3.947s-2.88-1.6-3.733-2.027c-6.613-3.307-33.387-23.467-48-36.053-32.107-27.84-61.013-62.933-83.84-101.973-9.387-15.893-22.827-44.373-29.973-63.467-0.853-2.347-2.027-5.44-2.56-6.72-1.28-3.307-4.8-14.080-6.933-21.547-0.853-3.2-2.347-8-3.2-10.667s-1.493-5.76-1.493-6.827c0-1.173-0.64-4.48-1.493-7.467-1.707-5.867-3.947-16.747-6.187-29.44-0.747-4.373-1.387-13.973-1.387-21.333 0-13.013 0.107-13.44 3.627-20.587 4.267-8.427 11.2-15.253 20.16-19.627l6.080-2.987 453.333-0.64 4.8 2.453c2.667 1.28 7.253 4.8 10.133 7.68 7.467 7.467 10.133 15.040 10.133 28.48 0 14.4 5.333 43.947 10.88 60.16 0.533 1.813 1.493 4.693 1.92 6.4 1.6 5.653 4.373 12.8 5.44 13.76 0.533 0.64 0.96 1.813 0.96 2.88 0 2.24 11.947 25.813 18.133 35.627 12.16 19.307 28.907 38.827 46.293 53.76 12.267 10.56 28.267 21.76 38.933 27.52 2.667 1.493 7.040 3.84 9.6 5.227s5.333 2.56 5.973 2.56c0.747 0 1.92 0.747 2.667 1.6s2.027 1.6 2.987 1.6c2.347 0 10.667 7.147 13.867 12.053 2.56 3.84 2.88 5.333 2.773 12.907 0 7.36-0.427 9.28-2.773 12.907-2.987 4.693-20.587 22.080-29.12 28.8-2.88 2.24-5.76 4.693-6.4 5.333-2.56 2.88-35.947 27.2-37.333 27.2-0.213 0-2.24 1.28-4.48 2.773s-5.013 3.2-6.187 3.733c-1.173 0.533-3.52 1.92-5.333 3.093-1.707 1.173-5.547 3.307-8.533 4.8-5.547 2.88-7.893 4.053-10.88 5.867-1.067 0.64-2.667 1.387-3.52 1.707s-4.48 2.027-8 3.627c-3.52 1.6-8.533 3.733-11.2 4.8s-6.187 2.453-8 3.2c-5.44 2.347-17.6 6.72-22.4 8-1.707 0.533-4.587 1.387-6.4 1.92-18.773 6.507-57.6 13.973-72.533 14.187-4.053 0.107-8.64 0.427-10.133 0.853-2.56 0.747-2.56 0.853 1.067 1.6 42.133 8.747 58.773 14.72 90.133 32 12.16 6.72 32.32 22.72 45.973 36.267 10.453 10.56 29.227 33.067 29.227 35.2 0 0.32 1.387 2.667 3.2 5.227 3.413 5.013 14.72 27.413 17.28 34.347 4.16 10.667 5.013 13.12 6.507 18.667 6.827 24.107 8.32 35.307 8.427 61.76 0 26.56-1.493 37.333-8.427 61.973-3.733 13.013-12.907 34.453-19.84 46.4-0.747 1.173-2.667 4.587-4.373 7.467-6.187 10.667-19.52 26.987-32.107 39.467-14.613 14.72-16.96 16.747-31.040 26.88-1.707 1.28-5.333 3.52-24.427 14.933-1.173 0.747-2.88 1.6-3.733 2.027-0.853 0.32-4.48 2.027-8 3.627s-7.787 3.52-9.6 4.267c-5.547 2.453-20.16 7.573-24 8.427-4.587 1.067-12.693 3.093-19.733 5.013-2.88 0.747-8.64 1.707-12.8 2.027-4.693 0.32-7.893 1.173-8.64 2.133-0.96 1.387-5.76 1.6-28.053 1.6-20.587 0-26.667-0.32-26.453-1.28zM765.333 314.027c-16-3.093-32.64-7.893-43.733-12.693-6.72-2.88-19.307-9.28-22.4-11.2-1.707-1.173-3.947-2.453-4.8-2.88-2.88-1.387-15.36-10.24-19.733-13.973-23.36-20.267-39.787-41.067-51.307-65.28-6.293-13.013-13.227-32.64-13.227-37.12 0-1.387-0.427-3.307-0.96-4.373-0.533-0.96-1.813-8-2.773-15.68-2.667-19.947-1.387-51.627 2.667-67.093 2.773-10.88 7.893-26.88 10.453-32.533 5.12-11.84 7.68-16.64 13.333-25.387 1.6-2.56 2.88-4.8 2.88-5.12 0-1.813 14.933-19.733 24.533-29.333 13.653-13.76 34.347-29.44 45.12-34.027 1.28-0.64 3.093-1.493 3.947-2.027 0.853-0.64 4.267-2.24 7.573-3.733 14.613-6.613 31.573-11.627 47.36-13.973 11.413-1.813 49.6-2.133 58.773-0.533 10.88 1.92 22.187 4.48 26.027 5.867 2.027 0.747 6.4 2.133 9.6 3.2 6.933 2.133 9.707 3.307 20.267 8.64 10.88 5.44 11.2 5.653 19.947 11.307 28.373 18.453 50.987 44.053 66.027 74.453 6.933 14.080 9.067 19.627 14.293 37.867 3.093 10.667 4.48 22.72 5.013 43.2 0.533 22.507-0.427 32.533-4.587 48.533-6.187 23.787-14.080 41.707-26.347 60.48-8.107 12.267-15.36 21.013-25.813 31.253-7.36 7.147-23.787 20.693-26.453 21.867-0.747 0.32-3.2 1.707-5.547 3.2-2.453 1.493-5.333 3.2-6.4 3.947-2.773 1.707-17.28 8.747-21.333 10.453-1.707 0.747-4.907 2.027-6.933 2.88-5.867 2.56-21.013 6.613-34.667 9.493-9.92 2.027-50.453 2.24-60.8 0.32zM847.467 240.427c16.533-5.547 29.547-15.147 38.507-28.693 20.587-30.72 18.667-66.773-4.587-88-7.467-6.827-13.653-10.453-23.147-13.547-6.293-2.027-9.707-2.453-21.547-2.453h-13.973l-8.427-9.813c-4.693-5.44-9.173-10.667-10.027-11.52-1.387-1.493-19.2-21.76-33.493-38.293-2.773-3.307-7.893-9.067-11.307-12.907s-9.92-11.2-14.613-16.533l-8.427-9.6-17.6-0.32-17.6-0.213-3.84 3.627c-3.307 3.307-3.84 4.373-4.48 10.987-0.32 3.947-1.067 9.92-1.6 13.12s-1.067 9.493-1.067 13.973l-0.107 8.107 4.053 0.747c2.133 0.32 7.253 0.64 11.307 0.64h7.36l-0.747 11.093-0.747 10.987 20.907 1.92v11.093c0 13.013-0.32 12.587 12.48 12.8 10.347 0.107 10.88 0.853 9.92 15.040-0.533 8.853-0.32 11.733 0.747 12.907 0.747 0.853 4.373 4.907 8.107 9.067 7.253 8.32 7.787 10.347 5.013 18.027-2.133 5.973-2.027 24.32 0.107 31.573 4.8 16.427 14.933 29.653 29.76 39.147 2.773 1.707 5.973 3.093 13.867 6.187 8.213 3.093 26.88 3.52 35.2 0.853zM836.8 210.773c-4.587-2.133-8.533-6.827-10.667-12.693-1.92-5.013-1.92-5.44 0-11.093 1.493-4.48 3.307-7.040 7.36-10.56 5.333-4.587 5.547-4.693 13.12-4.693 13.44 0 19.733 6.080 19.733 19.2 0.107 7.253-0.107 7.68-4.16 12.587-2.347 2.773-5.653 5.653-7.36 6.507-4.267 2.133-14.080 2.56-18.027 0.747z" />
<glyph unicode="&#xe916;" glyph-name="rateplan" d="M503.667 922.933c-19.4-2.2-29.267-5.4-39-12.667-1.667-1.2-96.667-95.867-211.133-210.4l-208.067-208.2-3-6.333c-4.667-10-5.4-13.467-5.4-25-0.067-13.4 2.133-21.2 8.467-30.933 2.6-4 319.867-321.267 323.867-323.867 3.8-2.467 10.2-5.533 13.267-6.333 1.267-0.333 3.533-0.933 5-1.333 1.467-0.467 7-0.8 12.333-0.8 11.467 0 15.933 0.933 25.333 5.467l6.333 3 207.867 207.733c114.333 114.267 209 209.267 210.4 211.067 9.6 12.4 13.133 27.067 13.467 55.867 0.133 9.667 0 12.067-0.8 12.533-0.533 0.333-8.6 0.533-17.933 0.4l-17-0.133-0.4-16c-0.4-16.8-1.133-22.267-3.8-27.4-0.933-1.8-71.2-72.533-207.067-208.467-113.133-113.133-206.867-206.533-208.2-207.667-4-3.067-6.933-3.933-10.667-2.933-1.667 0.467-4.133 1.733-5.467 2.8s-74 73.533-161.467 161.133c-168 168.133-160.6 160.467-160.6 166.067 0 5-4.667 0.2 210 214.8 144.933 144.933 208.067 207.667 209.8 208.4 1.4 0.6 5.067 1.667 8.2 2.333 5.4 1.2 12.133 1.267 156.733 1.267 147.267 0 151.2 0 155.133-1.267 5.067-1.667 6.467-2.467 10-5.733 3.2-3 4.333-4.933 6.2-10.6 1.2-3.8 1.267-7.733 1.267-136.8 0-85.067 0.2-133 0.667-133.267 0.333-0.2 1.067 0.6 1.533 1.867 1.467 3.4 6.467 7.333 11.267 8.733 3.867 1.133 4.333 1.133 8.067 0.133 5.4-1.533 7.933-3.267 11.4-7.933 1.067-1.4 2.2-2.267 2.533-1.933 0.267 0.267 0.467 60.467 0.4 134.867l-0.2 134.267-1.8 5.667c-3.933 12.533-9 20.533-18.933 30-4.733 4.533-12.067 10-13.333 10-0.267 0-1 0.4-1.533 0.867-1.4 1.2-7.267 3.667-12.733 5.4-4.333 1.333-5.133 1.333-156.667 1.467-83.8 0.067-153.2 0-154.333-0.133zM691.333 832.733c-1.267-0.333-3.667-0.867-5.333-1.267-6.4-1.467-15.733-5.733-23.067-10.467-5-3.267-17.933-16.2-21.067-21-6.067-9.467-9.267-16.933-11.2-26.4-3-14.333-0.467-30.2 6.867-43.6 7.8-14.267 21.6-27.533 35.467-34 27.2-12.733 56.667-6.667 78.8 16.2 22.267 23.067 27.533 51.333 14.467 78.2-9.933 20.333-27.533 34.733-50.6 41.4-3.867 1.133-20.8 1.733-24.333 0.933zM711.667 796.067c7-1.8 11.733-4.333 15.8-8.4 10.267-10.267 12.867-29.667 6-44.267-2.4-5-8.533-11.4-13.133-13.667-15.2-7.4-34.733-5.133-45.2 5.333-6.333 6.333-9.8 15.667-9.8 26.267 0 21.867 13.8 35.733 35.667 35.933 3.8 0 7.733-0.4 10.667-1.2zM478.333 642.267c-20.6-4.933-33-12.067-47.667-27.333-13.333-13.933-19.667-26.667-20.467-41.267-1.067-18.667 5.6-38.133 23.267-68.533 1.533-2.6 2.467-5 2.267-5.667-0.2-0.6-17.667-18.333-38.733-39.4-31.667-31.6-38.467-38.133-39.267-37.467-2.2 1.867-8.867 14.533-10.867 20.667-7.267 22.6-3.333 43.4 11.6 61.2 1.6 1.867 2.867 3.933 2.867 4.667 0 1.467-22.6 24.2-24.067 24.2-1.867 0-11.333-13.2-17.933-25-2.733-4.933-7.133-16.6-8.733-23.333-1.4-5.867-1.6-8.2-1.6-20 0-14.067 1-20.8 4.467-29.8 0.667-1.933 1.533-4.333 1.867-5.267 0.467-1.533 0.867-2.333 2.733-5.933 0.267-0.533 1.2-2.333 2-4 2-4 6.6-11.133 10.667-16.533 1.8-2.4 3.267-4.8 3.267-5.333s-5.067-6.067-11.333-12.333c-6.2-6.267-11.333-11.733-11.333-12.133 0-1.2 14.267-15 15.533-15 0.6 0 6.133 4.933 12.2 11s11.533 11 12.067 11c0.6 0 3.6-1.933 6.8-4.267 5.667-4.2 13-9.067 13.667-9.067 0.2 0 1.8-0.867 3.6-1.933 8.867-5.2 23.133-9.533 35.533-10.8 24.4-2.467 47.867 6.067 67.2 24.4 16.533 15.667 23.533 31.933 23.6 54.667 0.067 19.133-4.2 33.133-16.2 53.667-2.067 3.467-3.933 6.8-4.2 7.333s-0.867 1.6-1.333 2.333c-3.4 5.667-4.467 7.667-4.467 8.2 0 0.8 71.2 72.133 71.933 72.133 0.933 0 3.733-4.067 5.933-8.667 7.933-16.733 6.467-35.8-4.2-53.667-0.867-1.467-1.6-3.2-1.667-3.867 0-1.6 22.933-24.733 24.133-24.333 1.533 0.533 6.733 9.6 11.733 20.533 6.867 15.067 10.2 35.733 8.267 51.333-1.533 12-6.533 24.667-14.533 36.8-2.333 3.533-4.267 6.733-4.267 7.133 0 0.333 3.667 4.4 8.2 8.933 4.467 4.6 8.733 8.933 9.4 9.733 1.267 1.4 1.267 1.4-5.933 8.733-4.733 4.8-7.733 7.333-8.667 7.333s-4.467-3-10.133-8.667c-4.8-4.733-9.133-8.667-9.533-8.667-0.467 0-3.4 1.933-6.6 4.267-12.4 9.133-24.2 14.533-39.467 18.067-5.8 1.333-25.933 1.333-31.6-0.067zM507.667 607.667c3.6-0.933 8.467-2.533 10.8-3.667 6.2-2.867 12.867-7.333 12.867-8.6 0-1.4-66.8-68.067-68.2-68.067-0.933 0-3.133 4-7.6 13.933-1.667 3.8-3.4 9-5.133 15.8-3.2 12.267 0.933 24.867 11.867 36.133 13.933 14.333 28.133 18.867 45.4 14.467zM452.867 471.533c4.533-9 7.2-15.4 9.533-23.2 1.667-5.667 1.667-20.067 0-24.733-3.267-8.867-7.933-15.467-15.8-22.333-18.533-16.2-37.867-17.933-59.333-5.4-5.4 3.2-12 8.4-11.8 9.333 0.267 1.2 71.933 73.267 73 73.4 0.4 0 2.4-3.133 4.4-7.067z" />
<glyph unicode="&#xe917;" glyph-name="search" d="M1011.742 10.1l-284.648 287.403c54.744 68.55 87.845 156.477 87.845 252.134 0 224.096-181.666 405.762-405.762 405.762s-405.762-181.666-405.762-405.762c0-224.096 181.666-405.762 405.762-405.762 97.559 0 187.077 34.431 257.065 91.803l-0.715-0.568 282.766-285.475c7.994-8.387 19.251-13.603 31.727-13.603 11.675 0 22.284 4.568 30.135 12.015l-0.019-0.018c8.379 8.044 13.586 19.337 13.586 31.847 0 11.707-4.559 22.349-11.999 30.247l0.021-0.022zM408.149 231.667c-176.936 0.032-320.358 143.473-320.358 320.413 0 176.959 143.454 320.413 320.413 320.413s320.413-143.454 320.413-320.413c0-88.482-35.865-168.587-93.851-226.571v0c-57.683-57.969-137.524-93.843-225.744-93.843-0.307 0-0.614 0-0.921 0.001h0.047z" />
<glyph unicode="&#xe918;" glyph-name="services" horiz-adv-x="1009" d="M603.307 906.885c-0.055 0.050-0.119 0.108-0.184 0.166-14.138 12.73-31.989 18.721-49.614 18.18l0.035 0.001c-17.543-1.257-34.672-9.055-47.392-23.182-0.049-0.054-0.097-0.108-0.146-0.163l0.008 0.008-460.903-501.363c-0.384-0.403-0.829-0.883-1.269-1.371-12.177-13.524-17.909-30.599-17.393-47.458l-0.001 0.034c1.306-16.77 8.819-33.126 22.338-45.299 0.48-0.432 0.965-0.857 1.454-1.273l-0.072 0.062 358.337-315.996c0.371-0.353 0.813-0.762 1.262-1.166 27.598-24.85 70.116-22.621 94.965 4.977 0.374 0.415 0.742 0.834 1.103 1.256l-0.054-0.062 336.323 365.84c12.031 14.127 17.659 31.545 17.135 48.751l0.001-0.036-13.682 257.49c-1.35 17.132-8.825 33.854-22.237 46.568l-0.068 0.063zM557.213 856.747l219.947-193.973 13.779-257.548-336.323-365.84-358.337 315.996zM400.999 585.993l-207.427-225.622 255.957-225.714 207.412 225.605zM406.085 490.721l153.637-135.365-115.237-125.345-153.637 135.365z" />
<glyph unicode="&#xe919;" glyph-name="setting" d="M253.191 872.229c-104.74-0.315-189.564-85.139-189.879-189.849v-0.030c-0.003-0.403-0.005-0.879-0.005-1.355 0-62.177 31.008-117.112 78.404-150.184l0.595-0.393c-84.371-42.806-141.387-128.55-142.306-227.701l-0.001-0.124h63.283c0 104.867 85.012 189.879 189.879 189.879s189.879-85.012 189.879-189.879v0h63.283c0.72 102.382 81.739 185.608 183.172 189.866l0.387 0.013h6.437c0.25-0.001 0.546-0.002 0.842-0.002 77.165 0 143.51 46.33 172.734 112.691l0.475 1.209c-0.001 0.027-0.001 0.058-0.001 0.089 0 1.697 1.375 3.072 3.072 3.072 0.031 0 0.063 0 0.094-0.001h-0.005c2.045 2.99 3.265 6.685 3.265 10.664 0 0.706-0.038 1.403-0.113 2.089l0.008-0.085c0 3.16 0 3.218 3.189 6.378 0 3.16 3.16 9.45 3.16 12.61-0.055 0.426-0.086 0.919-0.086 1.419 0 3.14 1.237 5.992 3.25 8.094l-0.004-0.004c-0.055 0.426-0.086 0.919-0.086 1.419 0 3.14 1.237 5.992 3.25 8.094l-0.004-0.004v18.959c0 104.875-85.018 189.893-189.893 189.893s-189.893-85.018-189.893-189.893v0c-0.003-0.412-0.005-0.899-0.005-1.386 0-62.168 31.009-117.094 78.404-150.153l0.595-0.393c-47.144-23.094-85.039-58.91-110.055-102.992l-0.654-1.251c-25.656 45.405-63.578 81.276-109.283 103.73l-1.485 0.659c46.061 36.536 75.497 92.304 76.068 154.968l0.001 0.095c-0.365 104.733-85.219 189.526-189.941 189.791h-0.025zM253.191 808.945c69.917 0 126.596-56.679 126.596-126.596s-56.679-126.596-126.596-126.596c-69.917 0-126.596 56.679-126.596 126.596 0 0.010 0 0.021 0 0.031v-0.002c0.216 69.824 56.769 126.367 126.577 126.566h0.019zM696.232 808.945c69.917 0 126.596-56.679 126.596-126.596s-56.679-126.596-126.596-126.596c-69.917 0-126.596 56.679-126.596 126.596 0 0.010 0 0.021 0 0.031v-0.002c0.216 69.855 56.819 126.417 126.669 126.566h0.014zM762.675 460.785v-66.443c-20.364-4.43-38.367-12.12-54.393-22.585l0.618 0.379-47.455 47.484-44.325-44.266 47.455-47.455c-11.953-15.845-19.923-35.318-22.079-56.511l-0.040-0.482h-72.821v-63.254h66.443c5.063-21.562 12.702-40.574 22.752-58.021l-0.546 1.028-47.484-47.484 44.266-44.237 47.455 47.455c15.434-10.081 33.468-17.762 52.795-21.982l1.067-0.195v-66.443h63.283v66.443c20.363 4.413 38.367 12.094 54.392 22.555l-0.618-0.378 47.484-47.455 44.325 44.237-47.455 47.484c11.96 15.842 19.931 35.317 22.079 56.513l0.039 0.48h72.821v63.195h-66.501c-5.054 21.561-12.684 40.573-22.724 58.023l0.547-1.030 47.455 47.455-44.237 44.266-47.484-47.484c-15.425 10.090-33.448 17.78-52.766 22.010l-1.067 0.196v66.531zM791.172 334.19c0.026 0 0.057 0 0.088 0 52.434 0 94.939-42.506 94.939-94.939s-42.506-94.939-94.939-94.939c-52.434 0-94.939 42.506-94.939 94.939 0 0.010 0 0.021 0 0.031v-0.002c-0.010 0.518-0.016 1.128-0.016 1.74 0 51.496 41.746 93.243 93.243 93.243 0.571 0 1.142-0.005 1.711-0.015l-0.085 0.001zM791.172 270.907c-4.262-0.034-8.283-1.035-11.864-2.793l0.162 0.072c-7.6-3.693-13.598-9.691-17.195-17.073l-0.096-0.218c-1.716-3.387-2.72-7.384-2.72-11.615s1.005-8.228 2.789-11.765l-0.069 0.15c3.684-7.615 9.684-13.624 17.073-17.225l0.217-0.096c3.421-1.678 7.44-2.677 11.688-2.721h0.015c17.064 0.535 30.694 14.497 30.694 31.642s-13.63 31.106-30.645 31.64l-0.049 0.001z" />
<glyph unicode="&#xe91a;" glyph-name="settings" d="M253.191 872.229c-104.74-0.315-189.564-85.139-189.879-189.849v-0.030c-0.003-0.403-0.005-0.879-0.005-1.355 0-62.177 31.008-117.112 78.404-150.184l0.595-0.393c-84.371-42.806-141.387-128.55-142.306-227.701l-0.001-0.124h63.283c0 104.867 85.012 189.879 189.879 189.879s189.879-85.012 189.879-189.879v0h63.283c0.72 102.382 81.739 185.608 183.172 189.866l0.387 0.013h6.437c0.25-0.001 0.546-0.002 0.842-0.002 77.165 0 143.51 46.33 172.734 112.691l0.475 1.209c-0.001 0.027-0.001 0.058-0.001 0.089 0 1.697 1.375 3.072 3.072 3.072 0.031 0 0.063 0 0.094-0.001h-0.005c2.045 2.99 3.265 6.685 3.265 10.664 0 0.706-0.038 1.403-0.113 2.089l0.008-0.085c0 3.16 0 3.218 3.189 6.378 0 3.16 3.16 9.45 3.16 12.61-0.055 0.426-0.086 0.919-0.086 1.419 0 3.14 1.237 5.992 3.25 8.094l-0.004-0.004c-0.055 0.426-0.086 0.919-0.086 1.419 0 3.14 1.237 5.992 3.25 8.094l-0.004-0.004v18.959c0 104.875-85.018 189.893-189.893 189.893s-189.893-85.018-189.893-189.893v0c-0.003-0.412-0.005-0.899-0.005-1.386 0-62.168 31.009-117.094 78.404-150.153l0.595-0.393c-47.144-23.094-85.039-58.91-110.055-102.992l-0.654-1.251c-25.656 45.405-63.578 81.276-109.283 103.73l-1.485 0.659c46.061 36.536 75.497 92.304 76.068 154.968l0.001 0.095c-0.365 104.733-85.219 189.526-189.941 189.791h-0.025zM253.191 808.945c69.917 0 126.596-56.679 126.596-126.596s-56.679-126.596-126.596-126.596c-69.917 0-126.596 56.679-126.596 126.596 0 0.010 0 0.021 0 0.031v-0.002c0.216 69.824 56.769 126.367 126.577 126.566h0.019zM696.232 808.945c69.917 0 126.596-56.679 126.596-126.596s-56.679-126.596-126.596-126.596c-69.917 0-126.596 56.679-126.596 126.596 0 0.010 0 0.021 0 0.031v-0.002c0.216 69.855 56.819 126.417 126.669 126.566h0.014zM762.675 460.785v-66.443c-20.364-4.43-38.367-12.12-54.393-22.585l0.618 0.379-47.455 47.484-44.325-44.266 47.455-47.455c-11.953-15.845-19.923-35.318-22.079-56.511l-0.040-0.482h-72.821v-63.254h66.443c5.063-21.562 12.702-40.574 22.752-58.021l-0.546 1.028-47.484-47.484 44.266-44.237 47.455 47.455c15.434-10.081 33.468-17.762 52.795-21.982l1.067-0.195v-66.443h63.283v66.443c20.363 4.413 38.367 12.094 54.392 22.555l-0.618-0.378 47.484-47.455 44.325 44.237-47.455 47.484c11.96 15.842 19.931 35.317 22.079 56.513l0.039 0.48h72.821v63.195h-66.501c-5.054 21.561-12.684 40.573-22.724 58.023l0.547-1.030 47.455 47.455-44.237 44.266-47.484-47.484c-15.425 10.090-33.448 17.78-52.766 22.010l-1.067 0.196v66.531zM791.172 334.19c0.026 0 0.057 0 0.088 0 52.434 0 94.939-42.506 94.939-94.939s-42.506-94.939-94.939-94.939c-52.434 0-94.939 42.506-94.939 94.939 0 0.010 0 0.021 0 0.031v-0.002c-0.010 0.518-0.016 1.128-0.016 1.74 0 51.496 41.746 93.243 93.243 93.243 0.571 0 1.142-0.005 1.711-0.015l-0.085 0.001zM791.172 270.907c-4.262-0.034-8.283-1.035-11.864-2.793l0.162 0.072c-7.6-3.693-13.598-9.691-17.195-17.073l-0.096-0.218c-1.716-3.387-2.72-7.384-2.72-11.615s1.005-8.228 2.789-11.765l-0.069 0.15c3.684-7.615 9.684-13.624 17.073-17.225l0.217-0.096c3.421-1.678 7.44-2.677 11.688-2.721h0.015c17.064 0.535 30.694 14.497 30.694 31.642s-13.63 31.106-30.645 31.64l-0.049 0.001z" />
<glyph unicode="&#xe91b;" glyph-name="timer" d="M662.827 960h-288.768v-96.256h288.725zM470.315 334.379h96.256v288.555h-96.256zM856.747 652.501l68.267 68.267c-20.798 24.836-43.003 47.041-67.012 67.165l-0.828 0.675-68.267-68.267c-73.393 59.067-167.733 94.807-270.42 94.807-239.176 0-433.067-193.891-433.067-433.067s193.891-433.067 433.067-433.067c239.176 0 433.067 193.891 433.067 433.067 0 102.687-35.74 197.027-95.459 271.259l0.653-0.839zM518.443 45.653c-186.157 0-337.067 150.91-337.067 337.067s150.91 337.067 337.067 337.067c186.157 0 337.067-150.91 337.067-337.067v0c0-0.127 0-0.277 0-0.427 0-185.921-150.719-336.64-336.64-336.64-0.15 0-0.3 0-0.45 0h0.023z" />
<glyph unicode="&#xe91c;" glyph-name="timer-off" d="M864.582 792.017l-67.119-67.165c-72.228 58.105-165.060 93.262-266.103 93.262-87.105 0-168.108-26.127-235.599-70.971l1.571 0.981 69.213-69.167c47.643 28.202 105.004 44.867 166.257 44.867 182.515 0 330.473-147.958 330.473-330.473 0-61.253-16.665-118.615-45.708-167.797l0.841 1.54 68.608-68.608c44.107 65.782 70.393 146.737 70.393 233.831 0 100.727-35.16 193.242-93.876 265.941l0.629-0.805 67.212 67.212zM673.466 960h-283.648v-94.627h283.927zM484.212 560.64l94.627-94.627v162.909h-94.627zM106.636 818.036l-60.090-60.090 130.327-130.607c-44.222-66.076-70.575-147.363-70.575-234.805 0-235.213 190.678-425.891 425.891-425.891 87.513 0 168.861 26.395 236.517 71.658l-1.544-0.972 118.272-118.272 60.090 60.090-364.87 364.777zM531.549 60.975c-0.017 0-0.038 0-0.059 0-182.901 0-331.171 148.27-331.171 331.171 0 61.392 16.705 118.883 45.818 168.174l-0.842-1.542 452.329-452.329c-47.388-28.572-104.606-45.475-165.773-45.475-0.106 0-0.212 0-0.318 0h0.017z" />
<glyph unicode="&#xe91d;" glyph-name="transfer" d="M479.147 863.573c-52.053-52.053-94.891-94.464-95.317-94.208-0.341 0.256-0.683 2.475-0.683 4.864 0 4.352-1.792 15.701-3.499 22.357-0.427 1.877-1.195 4.779-1.621 6.4-1.195 5.291-3.157 10.069-7.765 20.053-16.384 34.987-52.907 63.317-89.515 69.547-2.56 0.427-6.997 1.195-9.813 1.621-14.421 2.56-38.827 0.256-54.613-5.12-1.365-0.512-3.328-1.109-4.267-1.365-1.877-0.427-4.011-1.365-12.8-5.461-25.173-11.776-47.445-34.048-59.221-59.221-4.608-9.984-6.571-14.763-7.765-20.053-0.427-1.621-1.109-4.523-1.621-6.4-2.731-11.179-3.755-39.083-1.707-50.261 1.451-8.363 5.547-22.869 7.509-26.795 0.427-0.768 1.963-4.096 3.499-7.424 1.621-3.243 3.925-7.595 5.291-9.643 1.28-2.048 2.389-3.84 2.389-4.096s2.219-3.413 5.035-6.997c5.888-7.765 15.019-17.323 20.992-22.016 2.304-1.792 5.205-4.181 6.4-5.205 1.195-1.109 2.389-1.963 2.731-1.963s2.304-1.195 4.437-2.645l3.925-2.56v-418.731l-3.157-1.963c-6.315-3.84-16.981-12.373-23.381-18.688-18.773-18.603-30.891-41.899-35.669-68.779-2.048-11.179-1.024-39.083 1.707-50.261 0.512-1.877 1.195-4.779 1.536-6.4 0.427-1.621 1.109-3.925 1.621-5.12 0.427-1.195 1.536-3.84 2.304-5.973 2.048-5.12 6.912-15.189 8.96-18.347 0.939-1.365 1.963-3.157 2.304-3.84 1.365-2.987 10.923-14.848 16.64-20.651 5.803-5.888 17.749-16.043 18.859-16.043 0.256 0 2.133-1.024 4.181-2.304 5.547-3.584 6.741-4.267 10.923-6.229 10.069-4.864 16.896-7.339 28.16-10.325 5.205-1.365 22.272-3.328 29.013-3.328 6.827 0 23.808 1.963 29.013 3.413 9.387 2.475 13.397 3.755 15.531 4.779 1.195 0.683 2.645 1.195 3.157 1.195 0.427 0 3.669 1.365 7.083 2.987 6.571 3.243 7.424 3.755 13.312 7.509 2.048 1.28 3.925 2.304 4.181 2.304 1.024 0 12.885 9.984 18.603 15.701 5.547 5.547 15.531 17.92 16.896 20.992 0.341 0.683 1.365 2.475 2.219 3.84 2.133 3.328 7.083 13.483 8.96 18.347 0.853 2.133 2.048 5.12 2.731 6.656s1.195 3.413 1.195 4.096c0 0.768 0.597 3.157 1.28 5.376 5.291 16.811 4.949 43.691-0.768 64.512-5.632 20.565-17.408 40.533-32.853 55.893-6.4 6.315-17.067 14.848-23.296 18.688l-3.243 1.963v418.731l3.925 2.56c2.133 1.451 4.096 2.645 4.437 2.645s1.536 0.853 2.731 1.963c1.195 1.024 4.096 3.413 6.4 5.205 5.973 4.693 15.104 14.251 20.992 22.016 2.816 3.584 5.035 6.741 5.035 6.997s1.109 2.048 2.389 4.096c1.365 2.048 3.669 6.4 5.291 9.643 1.536 3.328 3.328 6.997 3.925 8.277 0.683 1.195 1.195 2.816 1.195 3.584 0 0.683 0.512 2.56 1.195 4.096 2.56 6.059 6.485 25.344 6.485 32 0 1.963 0.171 4.096 0.427 4.779 0.341 0.768 32.939-31.232 95.147-93.44 52.053-51.968 95.061-94.549 95.488-94.549 0.683 0 1.024 19.627 1.109 62.976l0.256 62.891 34.816 0.256c32 0.171 35.243 0.085 41.045-1.451 12.629-3.328 23.211-9.643 32.768-19.627 8.448-8.789 14.336-19.029 17.237-30.208 1.621-5.973 1.707-12.288 1.707-210.261v-204.117l-3.925-2.56c-2.133-1.451-4.096-2.645-4.352-2.645-1.109 0-13.739-10.837-19.371-16.555-5.291-5.461-15.872-18.517-15.872-19.627 0-0.256-1.109-2.048-2.389-4.096-3.499-5.291-8.704-16.469-11.179-23.723-7.765-22.784-9.045-48.64-3.413-70.4 0.427-1.877 1.195-4.779 1.621-6.4 1.195-5.291 3.157-10.069 7.765-20.053 11.776-25.173 34.048-47.445 59.221-59.221 9.984-4.608 14.763-6.571 20.053-7.765 1.621-0.427 4.523-1.195 6.4-1.621 18.091-4.693 40.789-4.693 58.88 0 1.877 0.427 4.779 1.195 6.4 1.621 5.291 1.195 10.069 3.157 20.053 7.765 25.173 11.776 47.445 34.048 59.221 59.221 4.608 9.984 6.571 14.763 7.765 20.053 0.427 1.621 1.195 4.523 1.621 6.4 0.512 1.877 1.109 5.205 1.451 7.509 0.256 2.731 0.853 4.011 1.707 4.011 1.024 0 1.195 2.901 1.195 17.92 0 13.739-0.256 17.835-1.024 17.749-0.683-0.171-1.365 1.365-1.792 4.011-1.195 6.997-5.461 22.016-7.339 25.856-0.427 0.768-1.963 4.181-3.499 7.424-1.621 3.328-3.925 7.595-5.291 9.643-1.28 2.048-2.389 3.84-2.389 4.096 0 1.109-10.581 14.165-15.872 19.627-5.547 5.717-18.261 16.555-19.371 16.555-0.256 0-2.219 1.195-4.352 2.645l-3.925 2.56v207.104c0 183.808-0.171 207.957-1.365 215.125-2.987 18.517-6.656 30.891-13.739 47.019-3.84 8.619-9.131 18.603-13.141 24.576-1.365 2.048-2.475 3.84-2.475 4.096 0 0.683-15.189 20.736-18.688 24.576-3.925 4.523-17.408 18.005-21.931 21.931-3.84 3.499-23.893 18.688-24.576 18.688-0.256 0-2.048 1.109-4.096 2.475-5.717 3.755-14.677 8.533-23.723 12.715-14.933 6.741-26.197 10.24-45.227 13.909-3.755 0.768-18.944 1.28-46.080 1.536l-40.533 0.512-0.427 62.891c-0.256 34.56-0.597 63.061-0.853 63.317s-43.093-42.155-95.147-94.208zM268.8 829.44c13.824-3.499 23.381-8.875 32.085-18.091 17.749-18.688 22.784-43.093 13.824-67.328-5.376-14.507-21.931-31.061-36.437-36.437-25.259-9.301-51.627-3.243-69.632 16.213-20.821 22.357-23.211 54.613-5.803 79.616 11.776 17.067 31.403 27.477 51.883 27.648 4.949 0.085 9.899-0.512 14.080-1.621zM268.8 189.44c14.251-3.669 23.723-9.045 32.853-18.944 19.627-21.077 22.955-50.517 8.533-75.349-5.803-9.899-17.067-20.651-26.453-25.088-20.736-9.813-41.387-9.131-60.587 2.048-32.341 18.773-41.643 60.587-20.309 91.307 11.776 17.067 31.403 27.477 51.883 27.648 4.949 0.085 9.899-0.512 14.080-1.621zM780.8 189.44c14.251-3.669 23.723-9.045 32.853-18.944 19.627-21.077 22.955-50.517 8.533-75.349-5.803-9.899-17.067-20.651-26.453-25.088-20.736-9.813-41.387-9.131-60.587 2.048-32.341 18.773-41.643 60.587-20.309 91.307 11.776 17.067 31.403 27.477 51.883 27.648 4.949 0.085 9.899-0.512 14.080-1.621z" />
<glyph unicode="&#xe91e;" glyph-name="unlock" d="M846.507 445.525h-498.347v207.275c-0.284 3.403-0.446 7.366-0.446 11.367 0 80.118 64.949 145.067 145.067 145.067s145.067-64.949 145.067-145.067c0-3.399-0.117-6.771-0.347-10.111l0.025 0.451v-32.171c0-0.025 0-0.055 0-0.085 0-26.58 21.548-48.128 48.128-48.128 0.030 0 0.060 0 0.090 0h64.336c0.025 0 0.055 0 0.085 0 26.58 0 48.128 21.548 48.128 48.128 0 0.030 0 0.060 0 0.090v-0.005 32.171c0.101 2.928 0.158 6.369 0.158 9.823 0 168.719-136.774 305.493-305.493 305.493s-305.493-136.774-305.493-305.493c0-4.505 0.098-8.988 0.291-13.445l-0.022 0.635v-205.995h-48.64c-53.235-0.049-96.378-43.191-96.427-96.422v-321.541c0.049-53.235 43.191-96.378 96.422-96.427h707.418c53.235 0.049 96.378 43.191 96.427 96.422v321.541c-0.049 53.235-43.191 96.378-96.422 96.427h-0.005z" />
<glyph unicode="&#xe91f;" glyph-name="user" d="M512 383.993c159.060 0 288.003 128.944 288.003 288.003s-128.944 288.003-288.003 288.003c-159.060 0-288.003-128.944-288.003-288.003v0c0.032-159.047 128.956-287.972 288-288.003h0.003zM768.028 319.986h-110.213c-42.773-20.209-92.916-32.006-145.815-32.006s-103.043 11.798-147.944 32.905l2.128-0.899h-110.157c-0.017 0-0.036 0-0.056 0-141.369 0-255.972-114.603-255.972-255.972 0-0.020 0-0.039 0-0.059v0.003-31.976c0.032-52.997 42.986-95.951 95.979-95.983h832.038c52.997 0.032 95.951 42.986 95.983 95.979v31.979c0 0.017 0 0.036 0 0.056 0 141.369-114.603 255.972-255.972 255.972v0z" />
</font>
</defs>
</svg>
